# Blender v2.81 (sub 16) OBJ File: ''
# www.blender.org
mtllib man.mtl
o Plane
v 0.000000 8.205641 0.983262
v 1.414214 8.205641 0.000000
v -1.414214 8.205641 0.000000
v 0.000000 8.205641 -1.266783
v 0.000000 9.205086 0.891933
v 1.322885 9.205086 0.000000
v -1.322885 9.205086 0.000000
v 0.000000 9.205086 -1.175454
v 0.000000 5.333292 0.587429
v 1.414213 5.438196 -0.001100
v -1.414213 5.438196 -0.001100
v 0.000000 5.592854 -0.868750
v 0.000000 4.031488 0.856177
v 1.414214 4.031488 0.000000
v -1.414214 4.031488 0.000000
v 0.000000 4.031488 -1.139698
v 0.000000 9.515371 0.414255
v 0.553848 9.515371 -0.041205
v -0.553848 9.515371 -0.041205
v 0.000000 9.515371 -0.533328
v 0.000000 10.573133 0.405516
v 0.462719 10.368850 0.046293
v -0.462719 10.368850 0.046293
v 0.000000 10.082135 -0.457885
v 0.000000 11.159938 0.576325
v 0.812783 10.719388 -0.153051
v -0.812783 10.719388 -0.153051
v 0.000000 9.968014 -1.106137
v 0.000000 11.911195 0.650476
v 0.812783 11.683367 -0.384179
v -0.812783 11.691161 -0.386048
v 0.000000 10.994915 -1.323383
v 0.000000 12.622499 0.310022
v 0.000000 12.654485 -0.379976
v 0.000000 12.131501 -1.065292
vt 0.000000 1.000000
vt 1.000000 1.000000
vt 0.000000 1.000000
vt 0.000000 0.000000
vt 1.000000 0.000000
vt 0.000000 0.000000
vt 1.000000 1.000000
vt 0.000000 1.000000
vt 1.000000 1.000000
vt 0.000000 0.000000
vt 1.000000 0.000000
vt 1.000000 0.000000
vt 1.000000 0.000000
vt 1.000000 1.000000
vt 1.000000 0.000000
vt 0.000000 0.000000
vt 0.000000 0.000000
vt 0.000000 1.000000
vt 1.000000 1.000000
vt 1.000000 0.000000
vt 0.000000 1.000000
vt 1.000000 1.000000
vt 1.000000 0.000000
vt 0.000000 1.000000
vt 0.000000 0.000000
vt 0.000000 1.000000
vt 1.000000 1.000000
vt 1.000000 1.000000
vt 0.000000 0.000000
vt 1.000000 0.005939
vt 1.000000 1.000000
vt 1.000000 0.000000
vt 1.000000 0.000000
vt 0.000000 0.000000
vt 0.000000 1.000000
vt 0.000000 0.000000
vt 0.000000 1.000000
vn -0.5230 0.0003 -0.8523
vn 0.4088 0.7653 0.4971
vn -0.6627 0.0682 -0.7458
vn 0.5574 0.0756 0.8268
vn 0.6660 0.0609 -0.7435
vn -0.5701 0.0521 0.8199
vn 0.6218 0.1339 -0.7716
vn 0.5709 -0.0003 0.8211
vn 0.6630 -0.1127 -0.7401
vn -0.3891 -0.1258 0.9126
vn 0.0000 -1.0000 0.0000
vn -0.5100 0.1739 0.8424
vn -0.5229 -0.0007 -0.8524
vn 0.3842 0.0007 0.9233
vn 0.6860 0.1463 -0.7128
vn 0.3606 0.8398 -0.4058
vn -0.3107 0.8313 0.4608
vn -0.3606 0.8398 -0.4058
vn 0.6468 -0.7432 -0.1710
vn -0.6351 -0.0114 0.7723
vn -0.6610 0.0990 -0.7439
vn 0.6150 0.0065 0.7885
vn -0.8011 -0.1239 -0.5855
vn -0.5766 -0.1160 0.8087
vn -0.5774 -0.8041 0.1416
vn 0.5790 -0.2279 0.7828
vn 0.6875 0.5773 -0.4406
vn 0.7782 -0.0617 0.6249
vn 0.7974 -0.1407 -0.5869
vn -0.7068 0.1649 0.6880
vn -0.7850 0.2675 0.5588
vn -0.6829 0.1618 -0.7123
vn 0.7855 0.2672 0.5582
vn -0.6840 0.5799 -0.4425
vn 0.6846 0.1614 -0.7108
vn -0.7641 0.6445 0.0299
vn 0.7666 0.6415 0.0297
vn -0.6630 -0.1127 -0.7401
vn 0.3107 0.8313 0.4608
vn -0.6660 0.0609 -0.7435
vn 0.5701 0.0521 0.8199
vn 0.6627 0.0682 -0.7458
vn -0.5574 0.0756 0.8268
vn 0.5229 -0.0007 -0.8524
vn 0.3891 -0.1258 0.9126
vn 0.5230 0.0003 -0.8523
vn -0.5709 -0.0003 0.8211
vn -0.3842 0.0007 0.9233
vn -0.6218 0.1339 -0.7716
vn 0.5100 0.1739 0.8424
vn 0.6610 0.0990 -0.7439
vn -0.4088 0.7653 0.4971
vn 0.5774 -0.8041 0.1416
vn -0.6150 0.0065 0.7885
vn -0.6860 0.1463 -0.7128
vn 0.6351 -0.0114 0.7723
vn -0.7974 -0.1407 -0.5869
vn -0.5790 -0.2279 0.7828
vn -0.6468 -0.7432 -0.1710
vn 0.5766 -0.1160 0.8087
vn 0.7068 0.1649 0.6880
vn 0.8011 -0.1239 -0.5855
vn -0.7790 -0.0616 0.6239
usemtl None
s off
f 3/1/1 12/2/1 11/3/1
f 5/4/2 18/5/2 17/6/2
f 4/7/3 7/8/3 8/9/3
f 1/10/4 6/11/4 5/4/4
f 4/7/5 6/11/5 2/12/5
f 1/10/6 7/8/6 3/1/6
f 12/2/7 14/13/7 16/14/7
f 1/10/8 10/15/8 2/12/8
f 2/12/9 12/2/9 4/7/9
f 1/10/10 11/3/10 9/16/10
f 13/17/11 16/14/11 14/13/11
f 9/16/12 15/18/12 13/17/12
f 12/2/13 15/18/13 11/3/13
f 9/16/14 14/13/14 10/15/14
f 18/5/15 24/19/15 22/20/15
f 8/9/16 18/5/16 6/11/16
f 5/4/17 19/21/17 7/8/17
f 8/9/18 19/21/18 20/22/18
f 24/19/19 26/23/19 22/20/19
f 17/6/20 23/24/20 19/21/20
f 19/21/21 24/19/21 20/22/21
f 17/6/22 22/20/22 21/25/22
f 27/26/23 32/27/23 28/28/23
f 21/25/24 27/26/24 23/24/24
f 24/19/25 27/26/25 28/28/25
f 21/25/26 26/23/26 25/29/26
f 30/30/27 35/31/27 34/32/27
f 25/29/28 30/33/28 29/34/28
f 26/23/29 32/27/29 30/33/29
f 25/29/30 31/35/30 27/26/30
f 31/35/31 29/34/31 33/36/31
f 32/27/32 31/35/32 35/31/32
f 29/34/33 30/33/33 33/36/33
f 35/31/34 31/35/34 34/37/34
f 35/31/35 30/30/35 32/27/35
f 33/36/36 34/37/36 31/35/36
f 33/36/37 30/33/37 34/32/37
f 3/1/38 4/7/38 12/2/38
f 5/4/39 6/11/39 18/5/39
f 4/7/40 3/1/40 7/8/40
f 1/10/41 2/12/41 6/11/41
f 4/7/42 8/9/42 6/11/42
f 1/10/43 5/4/43 7/8/43
f 12/2/44 10/15/44 14/13/44
f 1/10/45 9/16/45 10/15/45
f 2/12/46 10/15/46 12/2/46
f 1/10/47 3/1/47 11/3/47
f 13/17/11 15/18/11 16/14/11
f 9/16/48 11/3/48 15/18/48
f 12/2/49 16/14/49 15/18/49
f 9/16/50 13/17/50 14/13/50
f 18/5/51 20/22/51 24/19/51
f 8/9/16 20/22/16 18/5/16
f 5/4/52 17/6/52 19/21/52
f 8/9/18 7/8/18 19/21/18
f 24/19/53 28/28/53 26/23/53
f 17/6/54 21/25/54 23/24/54
f 19/21/55 23/24/55 24/19/55
f 17/6/56 18/5/56 22/20/56
f 27/26/57 31/35/57 32/27/57
f 21/25/58 25/29/58 27/26/58
f 24/19/59 23/24/59 27/26/59
f 21/25/60 22/20/60 26/23/60
f 25/29/61 26/23/61 30/33/61
f 26/23/62 28/28/62 32/27/62
f 25/29/63 29/34/63 31/35/63
